PathFileType	4	(X/Y/Z)	C:/Users/beibeiliu/ov580/test_trc/User3\sequence.7_training_dense_left.trc
DataRate	CameraRate	NumFrames	NumMarkers	Units	OrigDataRate	OrigDataStartFrame	OrigNumFrames
120	120	23	19	mm	120	30	236
Frame#	Time	ThumbCMC			ThumbMCP			ThumbIP			ThumbTip			IndexMCP			IndexPIP			IndexTip			MiddleMCP			MiddlePIP			MiddleTip			RingMCP			RingPIP			RingTip			PinkyMCP			PinkyPIP			PinkyTip			BackHand1			BackHand2			BackHand3	
		X0	Y0	Z0	X1	Y1	Z1	X2	Y2	Z2	X3	Y3	Z3	X4	Y4	Z4	X5	Y5	Z5	X6	Y6	Z6	X7	Y7	Z7	X8	Y8	Z8	X9	Y9	Z9	X10	Y10	Z10	X11	Y11	Z11	X12	Y12	Z12	X13	Y13	Z13	X14	Y14	Z14	X15	Y15	Z15	X16	Y16	Z16	X17	Y17	Z17	X18	Y18	Z18	
29	0.241667	-154.958	-29.7124	23.0961	-146.795	-50.0388	-3.69729	-147.904	-69.3002	-29.5416	-170.908	-81.0049	-43.2083	-173.706	-18.5633	-52.3814	-171.533	-25.4894	-79.4832	-171.676	-35.6496	-106.034	-190.445	-44.9885	-52.6873	-181.004	-75.1136	-42.0918	-177.477	-58.3279	-4.48348	-202.682	-52.925	-38.8987	-194.07	-75.6418	-21.1137	-191.669	-57.6594	5.99973	-217.037	-53.6833	-28.3122	-204.241	-72.7884	-10.2839	-200.599	-50.8941	10.3379	-210.401	-6.9632	-2.18187	-212.515	-4.51932	27.9593	-180.338	-0.032254	12.5154	
30	0.25	-159.047	-30.4056	19.295	-144.509	-54.4544	-3.78423	-153.556	-73.4471	-22.2909	-175.581	-85.9988	-35.6323	-172.092	-27.3782	-57.7519	-175.585	-37.4318	-77.1468	-177.678	-52.2411	-104.298	-191.993	-51.6616	-48.2472	-183.232	-83.0053	-36.004	-181.068	-65.1765	-2.71566	-204.451	-62.1299	-36.5576	-196.979	-81.6878	-13.1754	-187.814	-58.6752	8.07712	-219.065	-63.4398	-24.4588	-207.394	-78.0538	-6.08129	-201.801	-52.398	16.1532	-217.481	-11.2939	-6.87454	-216.636	-5.59171	27.2137	-184.374	-2.54081	8.72095	
31	0.258333	-157.349	-30.5972	22.2762	-142.131	-58.5562	0.73008	-151.597	-77.985	-17.6085	-170.79	-95.4416	-30.8555	-175.044	-37.3071	-56.0978	-171.754	-49.302	-76.876	-172.789	-66.2636	-99.0749	-187.33	-63.7743	-46.7418	-177.985	-88.5573	-28.8029	-175.679	-65.4896	3.53832	-205.495	-68.0098	-30.2846	-193.713	-86.9453	-11.7308	-187.825	-62.3976	12.5692	-221.027	-68.8873	-19.6791	-205.539	-83.7125	1.60027	-201.355	-61.4458	18.395	-216.387	-16.4934	-6.5872	-214.839	-8.1282	26.6025	-180.453	-6.60337	6.24543	
32	0.266667	-156.052	-30.7205	22.4534	-141.004	-57.7091	5.80949	-146.367	-83.7551	-12.5451	-169.033	-97.4404	-21.0955	-169.543	-41.6796	-50.5412	-170.405	-60.0224	-74.0452	-170.974	-79.5201	-92.5045	-185.787	-68.0061	-40.6028	-174.024	-94.4306	-23.3123	-172.727	-67.839	6.9386	-198.62	-73.5292	-27.5869	-189.566	-91.7975	-4.96818	-185.918	-65.8885	16.9701	-216.726	-77.2241	-15.1118	-198.268	-86.2757	3.91472	-197.603	-60.1412	21.5277	-216.469	-22.6576	-7.94047	-215.216	-10.6493	24.9992	-186.514	-10.4911	7.04817	
33	0.275	-151.791	-27.1444	25.3289	-136.622	-57.2862	8.89235	-143.48	-85.8738	-9.26011	-162.395	-99.2224	-13.1549	-169.281	-48.23	-47.4676	-166.882	-66.8444	-69.4638	-162.177	-89.7931	-84.7781	-176.3	-74.4592	-36.0595	-165.733	-95.6353	-15.5294	-167.842	-68.9517	12.356	-190.459	-79.683	-21.8534	-181.728	-92.3034	2.02579	-182.087	-62.9537	21.4454	-207.785	-85.0084	-11.1544	-191.95	-87.6016	9.69261	-194.879	-64.114	28.0266	-211.032	-26.2506	-8.38168	-215.387	-13.5307	19.4697	-185.38	-10.0072	4.30649	
34	0.283333	-151.764	-23.7508	28.499	-130.7	-53.4674	16.8574	-134.639	-80.4058	1.5409	-155.604	-97.2634	-5.90587	-159.928	-47.2174	-43.8067	-155.835	-71.9768	-66.0413	-150.848	-91.2706	-75.9639	-165.524	-75.7373	-31.4169	-155.481	-92.6887	-5.28211	-164.025	-60.7308	17.3713	-183.735	-80.836	-17.6497	-168.812	-89.6412	9.96621	-176.138	-59.7755	25.855	-201.456	-82.7487	-8.19312	-182.916	-87.4373	15.8359	-186.943	-60.7326	29.0567	-206.917	-28.9778	-7.44934	-215.192	-14.1232	22.9469	-184.256	-10.5961	5.3795	
35	0.291667	-148.896	-17.0027	32.8775	-126.931	-46.4238	19.1426	-127.21	-72.7605	7.98833	-145.301	-92.5703	2.42492	-150.329	-45.3704	-42.407	-138.877	-68.3127	-61.9651	-133.037	-88.2163	-69.8314	-156.642	-75.7913	-25.0453	-141.468	-85.7601	1.84946	-154.819	-55.4103	22.8114	-172.005	-80.7219	-12.211	-158.777	-85.3217	17.3168	-167.505	-57.8263	29.9583	-184.849	-87.2339	-3.71112	-171.69	-84.2142	21.7618	-182.35	-61.1961	33.4446	-204.314	-33.5419	-9.15956	-215.361	-17.3092	19.4089	-182.042	-9.70393	7.98118	
36	0.3	-148.28	-8.70607	34.1622	-123.319	-35.4996	24.47	-117.741	-62.4765	15.37	-129.046	-89.3441	8.18369	-144.008	-44.159	-37.0866	-131.856	-60.8604	-52.8031	-119.617	-82.6424	-63.4307	-145.03	-67.8954	-20.1587	-128	-78.1058	6.15781	-150.322	-52.714	27.4056	-161.081	-75.9018	-7.66833	-147.778	-80.7016	19.5029	-161.479	-48.7983	33.3374	-171.004	-82.8892	1.84422	-160.302	-78.4756	25.0904	-176.441	-54.5589	37.0978	-201.057	-36.3725	-4.67044	-212.601	-19.7513	17.8385	-181.265	-8.1573	7.70133	
37	0.308333	-149.186	-2.95962	34.8089	-119.313	-24.2705	28.0787	-108.972	-49.3888	22.1192	-114.846	-77.4208	15.0448	-133.114	-39.4936	-35.3199	-117.085	-53.751	-49.1957	-99.9843	-70.2412	-58.6812	-136.724	-61.099	-14.5592	-119.926	-69.3093	13.1956	-144.459	-45.8757	30.7401	-150.162	-71.9487	-2.55701	-136.51	-69.6404	27.8715	-159.439	-44.339	38.2721	-164.527	-80.0363	4.24873	-152.396	-75.4249	31.0586	-164.209	-51.2664	40.4768	-192.434	-32.5663	-2.37917	-212.418	-23.0798	18.8958	-176.82	-3.12626	6.58846	
38	0.316667	-152.541	3.88533	36.6129	-116.373	-10.2753	34.8969	-100.085	-35.9286	26.1258	-106.392	-61.0829	22.5471	-127.756	-26.9675	-28.4926	-104.835	-39.8556	-43.6849	-89.7441	-58.1816	-52.5911	-124.5	-48.8482	-11.6094	-110.423	-57.4834	18.1323	-141.059	-35.7265	33.8508	-136.383	-62.4419	1.56311	-127.405	-62.0638	31.3955	-149.742	-39.2252	42.383	-150.236	-72.7743	10.1542	-142.866	-67.9241	36.0447	-164.263	-43.1376	44.1735	-188.172	-35.5195	-0.328819	-205.742	-20.6719	19.0978	-177.678	0.894573	7.78744	
39	0.325	-155.951	9.92798	37.2252	-122.711	0.749666	36.6532	-97.9507	-23.1439	28.0387	-99.7703	-52.6589	23.3678	-121.096	-22.1973	-28.0052	-102.737	-29.2672	-38.3769	-79.3251	-44.3204	-48.01	-117.873	-46.0504	-6.8623	-104.708	-45.7659	22.8016	-133.247	-29.7218	37.374	-129.373	-54.132	4.98458	-121.536	-51.951	35.706	-148.505	-31.6026	45.2929	-139.885	-67.6173	16.1625	-135.083	-57.0323	40.5591	-159.042	-37.3228	44.1066	-183.501	-32.3273	-0.6104	-204.78	-25.2126	20.7836	-179.407	3.17496	10.4457	
40	0.333333	-155.217	19.9388	36.9003	-121.908	10.5545	35.188	-96.615	-8.39114	29.7299	-92.5946	-37.4	27.4569	-119.809	-15.52	-27.0406	-97.034	-20.3146	-36.5971	-76.6694	-32.728	-43.8661	-113.545	-36.0842	-4.92743	-98.4096	-34.4486	22.9831	-130.584	-15.4862	37.6048	-123.949	-49.1787	9.13052	-114.46	-42.2009	37.9692	-143.472	-21.6246	45.6259	-134.499	-59.1658	16.8613	-129.221	-49.4457	43.726	-152.15	-29.1935	47.6896	-178.518	-37.01	-0.0901319	-202.724	-25.7993	21.2798	-181.929	1.1855	8.534	
41	0.341667	-160.826	25.3912	34.8771	-127.89	20.2421	37.2323	-95.9367	1.89599	30.913	-94.2942	-25.8381	29.1142	-120.939	-5.01909	-25.0084	-98.5949	-9.97012	-35.5693	-75.1752	-20.5319	-41.4937	-109.883	-27.6719	-3.74849	-95.961	-21.9232	24.8368	-132.011	-12.8268	38.7358	-120.46	-42.257	10.588	-111.113	-30.2344	38.3167	-140.004	-14.1593	46.3054	-128.034	-54.6359	22.4257	-125.987	-38.6035	45.7885	-155.232	-24.3481	48.9695	-175.892	-33.2812	1.60615	-199.849	-24.0694	21.2037	-183.327	4.60115	8.89882	
42	0.35	-164.061	25.7302	31.9204	-129.24	30.0532	33.6223	-102.701	9.28831	28.4582	-96.7931	-13.5237	30.1001	-123.094	3.25198	-27.2685	-95.7768	-2.32959	-37.4051	-69.9726	-8.34204	-43.7977	-108.19	-18.2534	-3.53101	-97.0405	-12.4653	25.115	-135.874	-0.892499	35.3928	-118.626	-33.5718	11.1287	-113.074	-23.9891	41.0341	-141.865	-8.69834	45.826	-124.924	-46.6213	23.1018	-123.91	-29.1104	45.4688	-151.908	-17.4369	47.8958	-176.177	-31.1036	2.63498	-200.057	-26.3892	22.1947	-185.674	3.53379	7.69421	
43	0.358333	-171.414	30.2066	29.4593	-137.247	33.0091	28.5874	-108.915	23.0336	26.3677	-96.9954	-5.92495	26.8275	-125.237	2.93117	-28.8835	-102.915	6.86124	-40.1184	-78.3649	1.61937	-46.1251	-113.742	-12.5248	-6.34346	-99.3458	1.44625	22.7258	-135.771	3.73768	32.9515	-115.732	-23.888	10.3601	-110.968	-14.0731	36.7627	-145.31	-5.67975	44.7733	-121.939	-35.7973	20.4757	-122.928	-21.8421	43.7162	-150.377	-13.27	47.3994	-173.772	-29.3778	-0.168793	-200.422	-30.7741	21.8161	-189.578	4.87076	5.88722	
44	0.366667	-179.624	28.3224	27.3185	-142.727	41.1128	24.6278	-109.849	30.3444	18.3047	-103.168	4.35464	21.5265	-132.549	10.7212	-32.4162	-109.633	11.46	-44.2089	-81.5273	9.49959	-51.3229	-118.735	-3.11163	-12.005	-101.622	6.90316	14.4768	-140.205	10.2323	29.0791	-116.775	-17.9975	7.71003	-112.507	-5.9559	32.6767	-147.66	-0.854099	40.9649	-125.146	-32.415	16.3086	-125.053	-14.0491	41.4854	-155.039	-7.64418	40.6861	-176.177	-29.135	0.908133	-200.605	-26.5937	19.7344	-192.257	4.5635	0.297094	
45	0.375	-183.965	31.6198	22.2113	-148.767	43.4378	18.0538	-121.476	35.6161	15.7598	-106.007	16.2095	17.6036	-139.38	14.3508	-38.6158	-114.863	18.7551	-51.5299	-90.1489	19.7213	-58.9992	-120.512	3.20098	-16.356	-108.913	13.7588	12.3106	-143.896	13.7351	25.0761	-122.298	-9.75882	-0.864549	-115.464	2.65776	25.7636	-151.801	4.74293	35.1387	-122.615	-24.512	14.4031	-124.795	-9.31206	36.8739	-153.241	-4.66829	40.3183	-177.916	-31.9511	0.752946	-204.579	-28.2982	19.4858	-198.021	2.3717	0.739482	
46	0.383333	-190.069	33.5286	15.396	-157.561	49.3762	12.9442	-128.316	42.0287	8.29604	-113.463	17.407	11.4814	-148.607	16.6439	-43.6168	-126.678	20.4194	-57.2222	-99.7346	22.7075	-65.411	-126.967	8.90507	-23.387	-115.236	24.0632	5.34887	-149.127	17.0186	19.1712	-125.328	-10.0517	-3.36597	-119.754	10.4275	20.594	-152.115	7.37119	33.1304	-124.166	-19.0245	9.77732	-124.511	-2.31479	28.0457	-153.866	-2.20929	35.3268	-180.103	-27.981	-4.07679	-204.424	-30.3601	20.1122	-202.478	1.95529	-2.14088	
47	0.391667	-197.692	33.9975	14.2953	-166.382	46.5178	8.62731	-133.103	48.1598	0.646353	-114.882	27.8242	4.97889	-154.024	18.3029	-49.7307	-136.397	26.1493	-62.0664	-111.426	32.077	-74.4247	-135.31	9.30485	-27.7986	-119.484	26.3062	-2.31771	-155.912	20.7204	13.7434	-127.471	-2.00224	-7.0547	-124.902	15.7641	14.9772	-157.544	11.7722	28.5942	-130.394	-15.2289	4.3257	-130.321	3.34374	25.6861	-160.276	0.598363	30.8433	-182.987	-28.4521	-1.57254	-205.221	-30.3716	15.556	-208.074	-0.814612	-4.61003	
48	0.4	-206.339	31.1514	14.5029	-175.752	48.4533	6.0897	-143.049	53.0365	-3.88464	-125.453	29.8652	0.139206	-164.215	19.5824	-52.0487	-143.977	27.0809	-67.3896	-122.35	35.2836	-79.5238	-140.88	11.6614	-30.3584	-129.338	34.6818	-7.37877	-164.581	23.6044	8.9992	-137.599	2.03501	-13.2398	-130.311	17.8157	14.0237	-164.671	16.3986	21.3515	-130.581	-9.70083	2.98875	-136.623	9.87693	22.1709	-162.023	4.58207	29.2169	-185.442	-30.455	-3.42962	-204.351	-32.5159	16.0298	-211.412	-6.42853	-2.84118	
49	0.408333	-210.146	34.1969	9.78587	-183.431	49.8367	2.06138	-153.019	53.8327	-7.75014	-129.892	36.0669	-6.77278	-170.53	21.3702	-56.6196	-152.531	32.5824	-73.3254	-134.426	41.5017	-85.4944	-146.84	16.6031	-35.9962	-134.675	35.765	-12.903	-166.938	20.669	7.74636	-139.489	4.63485	-17.1694	-136.934	23.9811	8.00704	-166.448	15.8903	21.345	-140.373	-8.88756	-4.92341	-139.315	13.1363	14.2601	-167.632	4.89	28.7157	-187.904	-28.7735	-8.79277	-208.256	-30.1499	16.1848	-215.574	-4.83431	-5.29836	
50	0.416667	-216.388	32.52	13.283	-188.393	52.5081	-1.76091	-160.133	56.0577	-11.6651	-134.312	42.9383	-14.1114	-182.565	24.3053	-56.1577	-161.578	31.6937	-77.2467	-147.153	44.05	-91.0345	-153.902	18.0301	-39.7962	-139.678	38.1926	-18.1773	-167.146	25.1269	4.79636	-146.956	6.35049	-23.3544	-140.019	24.3263	4.06517	-171.409	16.6993	16.6681	-140.587	-3.4517	-7.84709	-140.146	13.3241	12.7947	-167.96	9.15607	23.8828	-192.49	-27.8125	-8.95745	-208.891	-33.7237	14.4473	-219.31	-5.5343	-6.15965	
51	0.425	-217.368	34.8147	14.2816	-191.395	57.2563	-1.54026	-163.239	56.5151	-14.9575	-137.49	40.8529	-20.7546	-187.543	25.4996	-60.0297	-171.811	36.4624	-79.9573	-153.028	46.7131	-96.9152	-160.559	19.865	-43.8704	-144.025	41.1217	-26.2889	-172.372	23.5242	3.21462	-152.509	9.67256	-28.6533	-143.727	27.2093	-3.05317	-168.548	17.0813	15.1127	-144.281	-7.03415	-13.4712	-145.218	14.4771	7.89622	-170.901	7.75888	17.3547	-196.744	-24.1136	-12.5615	-210.493	-32.3657	15.4083	-224.357	-1.31434	-7.06129	
